<svg width="35" height="35" viewBox="0 0 35 35" fill="none" xmlns="http://www.w3.org/2000/svg">
<path d="M23.3334 32.0833V26.4396C23.3881 25.7442 23.2942 25.0451 23.0578 24.3889C22.8214 23.7326 22.4481 23.1342 21.9626 22.6333C26.5417 22.1229 31.3542 20.3875 31.3542 12.425C31.3539 10.3889 30.5707 8.43092 29.1667 6.95625C29.8315 5.17491 29.7845 3.20593 29.0355 1.45834C29.0355 1.45834 27.3147 0.947922 23.3334 3.61667C19.9909 2.71079 16.4676 2.71079 13.1251 3.61667C9.14383 0.947922 7.423 1.45834 7.423 1.45834C6.67396 3.20593 6.62696 5.17491 7.29175 6.95625C5.87735 8.44186 5.09334 10.4176 5.10425 12.4688C5.10425 20.3729 9.91675 22.1083 14.4959 22.6771C14.0161 23.1729 13.6461 23.7641 13.4099 24.4124C13.1737 25.0606 13.0767 25.7513 13.1251 26.4396V32.0833M13.1251 27.7083C5.83341 29.8958 5.83341 24.0625 2.91675 23.3333L13.1251 27.7083Z" stroke="#83828a" stroke-width="2" stroke-linecap="round" stroke-linejoin="round"/>
</svg>
