<svg width="35" height="35" viewBox="0 0 35 35" fill="none" xmlns="http://www.w3.org/2000/svg">
<path d="M24.7917 2.91667H10.2084C6.18134 2.91667 2.91675 6.18126 2.91675 10.2083V24.7917C2.91675 28.8187 6.18134 32.0833 10.2084 32.0833H24.7917C28.8188 32.0833 32.0834 28.8187 32.0834 24.7917V10.2083C32.0834 6.18126 28.8188 2.91667 24.7917 2.91667Z" stroke="#F6BD3A" stroke-width="2" stroke-linecap="round" stroke-linejoin="round"/>
<path d="M23.3333 16.5812C23.5133 17.7949 23.306 19.0345 22.7409 20.1236C22.1758 21.2126 21.2816 22.0958 20.1857 22.6474C19.0897 23.1991 17.8477 23.3911 16.6363 23.1962C15.425 23.0012 14.3059 22.4293 13.4383 21.5617C12.5707 20.6941 11.9988 19.575 11.8038 18.3636C11.6089 17.1523 11.8009 15.9103 12.3525 14.8143C12.9042 13.7183 13.7873 12.8242 14.8764 12.2591C15.9655 11.694 17.205 11.4867 18.4187 11.6667C19.6567 11.8502 20.8029 12.4271 21.6879 13.3121C22.5728 14.1971 23.1497 15.3432 23.3333 16.5812Z" stroke="#F6BD3A" stroke-width="2" stroke-linecap="round" stroke-linejoin="round"/>
<path d="M25.5208 9.47916H25.5353" stroke="#F6BD3A" stroke-width="2" stroke-linecap="round" stroke-linejoin="round"/>
</svg>
