<svg width="72" height="72" viewBox="0 0 72 72" fill="none" xmlns="http://www.w3.org/2000/svg">
<rect width="72" height="72" rx="8" fill="#F0F0F0"/>
<path d="M12.855 37.88C13.515 37.16 14.19 36.41 14.88 35.63C15.6 34.85 16.29 34.085 16.95 33.335C17.61 32.555 18.225 31.82 18.795 31.13C19.395 30.44 19.905 29.84 20.325 29.33H28.29C26.7 31.16 25.14 32.915 23.61 34.595C22.11 36.245 20.46 37.955 18.66 39.725C19.56 40.535 20.49 41.51 21.45 42.65C22.41 43.76 23.34 44.915 24.24 46.115C25.14 47.315 25.965 48.515 26.715 49.715C27.465 50.915 28.095 52.01 28.605 53H20.91C20.43 52.22 19.875 51.365 19.245 50.435C18.645 49.475 18 48.53 17.31 47.6C16.62 46.64 15.885 45.725 15.105 44.855C14.355 43.985 13.605 43.25 12.855 42.65V53H6.15V19.16L12.855 18.08V37.88ZM55.7565 48.32C56.4165 48.32 57.0465 48.305 57.6465 48.275C58.2465 48.245 58.7265 48.2 59.0865 48.14V43.055C58.8165 42.995 58.4115 42.935 57.8715 42.875C57.3315 42.815 56.8365 42.785 56.3865 42.785C55.7565 42.785 55.1565 42.83 54.5865 42.92C54.0465 42.98 53.5665 43.115 53.1465 43.325C52.7265 43.535 52.3965 43.82 52.1565 44.18C51.9165 44.54 51.7965 44.99 51.7965 45.53C51.7965 46.58 52.1415 47.315 52.8315 47.735C53.5515 48.125 54.5265 48.32 55.7565 48.32ZM55.2165 28.7C57.1965 28.7 58.8465 28.925 60.1665 29.375C61.4865 29.825 62.5365 30.47 63.3165 31.31C64.1265 32.15 64.6965 33.17 65.0265 34.37C65.3565 35.57 65.5215 36.905 65.5215 38.375V52.325C64.5615 52.535 63.2265 52.775 61.5165 53.045C59.8065 53.345 57.7365 53.495 55.3065 53.495C53.7765 53.495 52.3815 53.36 51.1215 53.09C49.8915 52.82 48.8265 52.385 47.9265 51.785C47.0265 51.155 46.3365 50.345 45.8565 49.355C45.3765 48.365 45.1365 47.15 45.1365 45.71C45.1365 44.33 45.4065 43.16 45.9465 42.2C46.5165 41.24 47.2665 40.475 48.1965 39.905C49.1265 39.335 50.1915 38.93 51.3915 38.69C52.5915 38.42 53.8365 38.285 55.1265 38.285C55.9965 38.285 56.7615 38.33 57.4215 38.42C58.1115 38.48 58.6665 38.57 59.0865 38.69V38.06C59.0865 36.92 58.7415 36.005 58.0515 35.315C57.3615 34.625 56.1615 34.28 54.4515 34.28C53.3115 34.28 52.1865 34.37 51.0765 34.55C49.9665 34.7 49.0065 34.925 48.1965 35.225L47.3415 29.825C47.7315 29.705 48.2115 29.585 48.7815 29.465C49.3815 29.315 50.0265 29.195 50.7165 29.105C51.4065 28.985 52.1265 28.895 52.8765 28.835C53.6565 28.745 54.4365 28.7 55.2165 28.7Z" fill="#282321"/>
<path d="M33.1096 17.765H39.4996V61.325H33.1096V17.765Z" fill="#F6BD3A"/>
</svg>
