<svg width="48" height="38" viewBox="0 0 48 38" fill="none" xmlns="http://www.w3.org/2000/svg">
<path d="M7.227 19.912C7.711 19.384 8.206 18.834 8.712 18.262C9.24 17.69 9.746 17.129 10.23 16.579C10.714 16.007 11.165 15.468 11.583 14.962C12.023 14.456 12.397 14.016 12.705 13.642H18.546C17.38 14.984 16.236 16.271 15.114 17.503C14.014 18.713 12.804 19.967 11.484 21.265C12.144 21.859 12.826 22.574 13.53 23.41C14.234 24.224 14.916 25.071 15.576 25.951C16.236 26.831 16.841 27.711 17.391 28.591C17.941 29.471 18.403 30.274 18.777 31H13.134C12.782 30.428 12.375 29.801 11.913 29.119C11.473 28.415 11 27.722 10.494 27.04C9.988 26.336 9.449 25.665 8.877 25.027C8.327 24.389 7.777 23.85 7.227 23.41V31H2.31V6.184L7.227 5.392V19.912ZM38.6881 27.568C39.1721 27.568 39.6341 27.557 40.0741 27.535C40.5141 27.513 40.8661 27.48 41.1301 27.436V23.707C40.9321 23.663 40.6351 23.619 40.2391 23.575C39.8431 23.531 39.4801 23.509 39.1501 23.509C38.6881 23.509 38.2481 23.542 37.8301 23.608C37.4341 23.652 37.0821 23.751 36.7741 23.905C36.4661 24.059 36.2241 24.268 36.0481 24.532C35.8721 24.796 35.7841 25.126 35.7841 25.522C35.7841 26.292 36.0371 26.831 36.5431 27.139C37.0711 27.425 37.7861 27.568 38.6881 27.568ZM38.2921 13.18C39.7441 13.18 40.9541 13.345 41.9221 13.675C42.8901 14.005 43.6601 14.478 44.2321 15.094C44.8261 15.71 45.2441 16.458 45.4861 17.338C45.7281 18.218 45.8491 19.197 45.8491 20.275V30.505C45.1451 30.659 44.1661 30.835 42.9121 31.033C41.6581 31.253 40.1401 31.363 38.3581 31.363C37.2361 31.363 36.2131 31.264 35.2891 31.066C34.3871 30.868 33.6061 30.549 32.9461 30.109C32.2861 29.647 31.7801 29.053 31.4281 28.327C31.0761 27.601 30.9001 26.71 30.9001 25.654C30.9001 24.642 31.0981 23.784 31.4941 23.08C31.9121 22.376 32.4621 21.815 33.1441 21.397C33.8261 20.979 34.6071 20.682 35.4871 20.506C36.3671 20.308 37.2801 20.209 38.2261 20.209C38.8641 20.209 39.4251 20.242 39.9091 20.308C40.4151 20.352 40.8221 20.418 41.1301 20.506V20.044C41.1301 19.208 40.8771 18.537 40.3711 18.031C39.8651 17.525 38.9851 17.272 37.7311 17.272C36.8951 17.272 36.0701 17.338 35.2561 17.47C34.4421 17.58 33.7381 17.745 33.1441 17.965L32.5171 14.005C32.8031 13.917 33.1551 13.829 33.5731 13.741C34.0131 13.631 34.4861 13.543 34.9921 13.477C35.4981 13.389 36.0261 13.323 36.5761 13.279C37.1481 13.213 37.7201 13.18 38.2921 13.18Z" fill="#282321"/>
<path d="M22.0804 5.161H26.7664V37.105H22.0804V5.161Z" fill="#F6BD3A"/>
</svg>
